<svg width="32" height="32" viewBox="0 0 32 32" fill="none" xmlns="http://www.w3.org/2000/svg">
<path fill-rule="evenodd" clip-rule="evenodd" d="M12.8219 4.85585C14.2326 2.40385 17.7686 2.40385 19.1792 4.85585L29.9032 23.5065C31.3086 25.9505 29.5432 28.9998 26.7246 28.9998H5.27656C2.45656 28.9998 0.692562 25.9505 2.0979 23.5065L12.8219 4.85585ZM16.0006 10.9998C16.2658 10.9998 16.5201 11.1052 16.7077 11.2927C16.8952 11.4803 17.0006 11.7346 17.0006 11.9998V17.3332C17.0006 17.5984 16.8952 17.8527 16.7077 18.0403C16.5201 18.2278 16.2658 18.3332 16.0006 18.3332C15.7353 18.3332 15.481 18.2278 15.2935 18.0403C15.1059 17.8527 15.0006 17.5984 15.0006 17.3332V11.9998C15.0006 11.7346 15.1059 11.4803 15.2935 11.2927C15.481 11.1052 15.7353 10.9998 16.0006 10.9998ZM16.7579 23.3332C16.9295 23.1352 17.0165 22.8777 17.0003 22.6162C16.984 22.3547 16.8658 22.11 16.671 21.9348C16.4762 21.7595 16.2204 21.6678 15.9586 21.6792C15.6969 21.6906 15.45 21.8043 15.2712 21.9958L15.2579 22.0105C15.0869 22.2085 15.0002 22.4655 15.0165 22.7266C15.0328 22.9877 15.1508 23.232 15.3451 23.4071C15.5394 23.5822 15.7946 23.6743 16.056 23.6634C16.3174 23.6526 16.5641 23.5398 16.7432 23.3492L16.7579 23.3332Z" fill="#6164FF"/>
</svg>
