<svg width="359" height="506" viewBox="0 0 359 506" fill="none" xmlns="http://www.w3.org/2000/svg">
<g clip-path="url(#clip0_147_2524)" filter="url(#filter0_d_147_2524)">
<path d="M80.465 214.695C78.2963 215.495 84.7661 218.633 84.9721 215.713C85.166 213.011 81.8341 214.186 80.465 214.695Z" fill="#C8C9FF"/>
<path d="M77.9569 216.561C79.7016 216.44 78.9989 219.687 77.5934 219.541C76.1759 219.396 76.7817 216.645 77.9569 216.561Z" fill="#C8C9FF"/>
<path d="M176.81 245.494C175.368 244.27 174.569 241.289 173.648 239.533C172.182 236.722 173.527 235.34 172.897 232.493C172.352 230.034 171.043 230.918 169.771 229.452C168.886 228.41 168.947 226.968 167.929 226.023C167.105 225.26 165.845 225.345 164.949 224.678C164.755 225.551 161.241 231.536 160.369 231.572C157.703 231.669 156.989 225.757 155.414 223.576C152.397 225.333 154.832 229.961 152.821 232.324C148.738 230.118 148.726 224.654 146.496 221.141C146.508 220.874 146.533 220.595 146.545 220.329C146.86 219.299 146.327 218.802 144.945 218.863C144.376 218.027 143.794 217.881 143.322 216.912C142.062 214.319 143.516 211.169 142.038 208.407C140.838 206.165 138.875 205.438 138.5 202.749C138.161 200.301 139.627 197.418 139.687 194.898C139.76 191.796 135.628 182.733 140.596 182.055C142.122 181.849 145.139 184.551 146.436 185.096C151.028 186.986 149.743 185.011 152.191 181.946C153.62 180.153 153.463 180.431 155.486 180.383C156.383 180.359 156.577 181.74 157.716 181.11C158.842 180.492 158.467 178.941 158.237 177.911C157.437 174.252 152.263 172.435 150.204 169.794C149.198 168.497 148.52 167.443 147.635 166.462C145.66 164.257 144.533 164.656 142.353 163.469C141.044 162.754 140.172 160.913 138.718 160.477C136.985 159.956 135.071 161.24 133.508 161.809C128.468 163.639 123.767 164.438 118.933 166.51C115.625 167.916 117.176 169.333 115.722 171.284C114.983 172.277 114.728 172.75 113.965 171.223C111.833 166.983 114.959 161.034 108.876 158.623C107.774 158.187 104.951 157.157 104.042 157.06C103.23 156.963 102.237 157.375 101.413 157.266C98.0328 156.83 98.7113 156.03 95.9246 154.443C95.4279 154.152 94.3738 154.104 93.9982 153.837C94.18 153.97 90.8723 151.608 91.1752 151.717C89.685 151.184 88.4855 150.881 87.3587 152.31C85.3233 154.891 88.1584 155.909 88.3643 158.162C88.5097 159.737 89.164 159.956 87.2981 159.616C87.0801 159.58 86.1108 157.375 85.6988 157.036C84.1359 155.776 82.6335 155.485 80.6223 155.533C78.8655 155.57 75.8365 155.763 75.8487 158.005C75.8487 157.702 79.5319 162.766 79.7378 162.96C80.9615 164.136 83.627 162.888 83.5786 165.48C83.5422 167.795 80.5496 166.971 79.229 167.916C78.5384 168.4 79.2774 169.212 78.7565 169.842C78.0901 170.642 77.1087 170.739 76.3939 171.417C75.3277 172.423 75.679 174.167 74.0192 173.356C71.911 172.326 75.0732 168.63 75.2308 167.395C75.5458 164.778 73.8617 161.628 73.8132 158.938C72.3835 158.114 71.6687 168.727 70.4208 169.212C67.3191 170.424 68.4943 165.505 66.5073 165.274C63.5389 164.923 66.6285 173.707 66.4831 173.961C65.5138 175.512 64.0963 172.81 63.5753 172.92C60.6432 173.55 63.6359 173.029 61.9154 175.052C60.8977 176.251 59.8678 177.766 59.5649 179.268C59.6498 178.832 60.195 182.564 59.9163 181.982C60.1707 182.491 58.7774 184.502 60.8977 183.678C62.1698 183.182 61.3944 181.061 62.4485 180.516C63.9024 179.765 66.156 180.843 66.1802 182.54C66.2044 183.703 59.989 185.326 63.1512 186.913C66.2287 188.464 67.4887 182.564 69.609 182.721C71.5233 182.867 69.924 183.666 70.4571 184.708C70.1905 185.302 70.13 185.92 70.2511 186.55C70.4934 187.18 70.9417 187.507 71.6202 187.543C72.4078 189.143 73.2559 188.198 73.2922 190.427C73.3164 192.038 71.6445 192.632 72.3351 194.34C72.747 195.346 74.5523 195.709 75.1338 197.042C75.8971 198.775 75.2792 201.864 75.5821 203.766C76.1031 207.038 76.6241 211.848 80.7313 212.102C85.5656 212.405 83.9542 207.631 82.7789 204.409C81.531 200.968 80.5496 197.442 79.3138 194.025C78.9867 193.129 74.7825 183.751 76.8543 184.236C78.1628 184.539 77.8235 187.895 78.0901 188.779C78.7201 190.851 79.0472 191.42 80.8283 192.414C85.1173 194.825 83.4938 191.566 84.1965 188.646C85.5413 183.06 86.2562 190.584 86.0381 192.741C85.5656 197.175 87.0922 200.289 87.6859 204.457C87.8918 205.887 88.7278 207.462 88.849 208.77C89.0065 210.406 87.5889 212.538 88.1099 214.041C88.6067 215.483 90.5694 215.24 91.2116 216.27C92.6897 218.645 91.4539 216.67 90.8117 218.221C90.0848 219.978 88.6551 218.645 89.479 221.468C89.8788 222.825 92.1324 223.188 92.1687 224.969C92.193 226.278 90.4604 226.605 90.4362 227.768C90.3998 229.343 92.0597 229.682 91.8658 231.148C91.7204 232.311 87.7101 234.892 88.3643 236.14C89.1276 237.594 90.6058 236.043 91.781 236.298C92.9563 236.552 93.8892 237.327 94.919 238.054C96.4698 239.157 98.1055 240.017 99.0021 242.174C100.117 244.851 99.6684 249.043 104.054 248.886C105.86 248.825 106.308 247.82 107.835 247.153C109.276 246.523 111.069 246.693 112.305 246.208C115.867 244.803 116.788 240.744 118.775 237.994C121.792 233.79 124.433 235.886 128.686 236.092C129.837 236.152 131.933 235.377 132.987 235.958C134.489 236.77 134.55 239.217 136.21 240.235C139.372 242.198 144.994 240.986 148.071 239.738C150.373 238.806 150.034 237.691 151.779 239.411C152.106 239.738 151.779 241.132 152.057 241.616C152.736 242.755 153.414 242.913 154.372 243.797C157.57 246.741 159.533 250.255 164.355 250.449C165.736 250.497 177.743 246.354 176.774 245.542L176.81 245.494Z" fill="#C8C9FF" stroke="#C8C9FF" stroke-width="1.26005"/>
<path d="M83.2634 149.936C84.79 150.239 86.4741 153.013 83.9782 152.892C82.282 152.807 81.7852 149.645 83.2634 149.936Z" fill="#C8C9FF"/>
<path d="M349.643 74.2842C346.166 79.8938 335.576 73.5572 340.811 69.0259C345.233 65.2094 353.653 67.8022 349.643 74.2842Z" fill="#5CADFF" stroke="#5CADFF" stroke-width="0.630025" stroke-linecap="round" stroke-linejoin="round"/>
<path d="M70.8815 289.098C69.3064 289.995 69.888 285.343 72.1173 284.64C76.7819 283.174 72.614 288.117 70.8815 289.098Z" fill="#5CADFF" stroke="#5CADFF" stroke-width="0.630025" stroke-linecap="round" stroke-linejoin="round"/>
<path d="M53.9313 308.738C55.7123 310.895 51.7262 310.023 51.9079 309.938C51.5081 310.132 51.4475 305.709 53.9313 308.738Z" fill="#8FC7FF" stroke="#8FC7FF" stroke-width="0.630025" stroke-linecap="round" stroke-linejoin="round"/>
<path d="M124.421 465.626C125.305 468.11 122.47 467.698 121.828 466.22C121.101 464.548 123.755 463.736 124.421 465.626Z" fill="#FFB5A7" stroke="#FFB5A7" stroke-width="0.630025" stroke-linecap="round" stroke-linejoin="round"/>
<path d="M110.924 460.986C105.944 461.495 101.813 462.294 97.1483 463.93C93.2228 465.311 89.6365 464.415 85.614 466.05C79.544 468.498 74.1161 469.515 69.403 474.386C67.1131 476.761 63.6237 479.232 63.2482 482.564C62.7999 486.671 66.1438 489.688 69.1849 491.845C74.1161 495.322 71.7414 490.464 75.7275 489.361C76.0425 489.276 79.1684 489.785 79.5682 489.822C80.7313 489.919 81.5916 489.749 82.9485 490.003C83.4816 490.1 84.5963 489.919 85.2142 489.967C85.614 490.512 86.1471 490.827 86.8014 490.936C87.492 490.5 88.2189 490.137 88.9822 489.858C91.9991 489.555 94.6646 490.912 97.5239 489.567C98.1782 488.84 98.8082 488.101 99.4261 487.338C100.202 486.696 101.025 486.611 101.898 487.096C102.952 486.732 104.527 486.32 105.775 485.945C106.296 485.787 108.137 485.508 108.525 485.424C108.646 484.479 109.216 484.067 110.233 484.212C111.13 484.612 112.027 484.648 112.923 484.321C115.407 483.267 115.843 480.432 117.188 478.578C119.163 475.828 121.368 475.21 120.895 471.49C120.544 468.728 119.478 465.59 117.176 464.148C116.849 463.942 114.607 463.494 114.05 463.215C112.657 462.549 113.056 460.792 110.912 461.022L110.924 460.986Z" fill="#FFB5A7" stroke="#FFB5A7" stroke-width="0.630025" stroke-linecap="round" stroke-linejoin="round"/>
<path d="M188.781 391.199C189.423 392.653 187.666 395.742 187 393.44C186.733 392.532 187.969 389.357 188.781 391.199Z" fill="#8FC7FF" stroke="#8FC7FF" stroke-width="0.630025" stroke-linecap="round" stroke-linejoin="round"/>
<path d="M59.6014 333.891C60.2799 337.914 52.3925 336.048 54.961 332.134C55.373 331.504 59.8922 327.203 60.813 328.342C61.3703 329.033 59.3833 332.643 59.6014 333.891Z" fill="#8FC7FF" stroke="#8FC7FF" stroke-width="0.630025" stroke-linecap="round" stroke-linejoin="round"/>
<path d="M63.3453 337.623C62.582 337.211 57.8447 336.726 62.0974 335.563C65.3687 334.666 66.1562 339.137 63.3453 337.623Z" fill="#8FC7FF" stroke="#8FC7FF" stroke-width="0.630025" stroke-linecap="round" stroke-linejoin="round"/>
<path d="M60.171 340.821C57.348 340.506 60.8495 337.332 63.1273 339.719C63.9511 340.591 64.8114 341.476 63.3453 342.36C62.0732 343.123 61.4432 340.955 60.171 340.821Z" fill="#8FC7FF" stroke="#8FC7FF" stroke-width="0.630025" stroke-linecap="round" stroke-linejoin="round"/>
<path d="M70.869 340.712C72.0685 341.064 71.8261 342.542 70.6751 342.735C68.5549 343.099 69.3182 340.252 70.869 340.712Z" fill="#8FC7FF" stroke="#8FC7FF" stroke-width="0.630025" stroke-linecap="round" stroke-linejoin="round"/>
<path d="M8.8359 367.306C10.7623 364.617 12.3859 368.433 10.8108 370.117C8.94495 372.116 7.50316 369.172 8.8359 367.306Z" fill="#8FC7FF" stroke="#8FC7FF" stroke-width="0.630025" stroke-linecap="round" stroke-linejoin="round"/>
<path d="M24.7684 370.214C24.5867 371.232 22.43 374.491 24.5867 375.23C25.9073 375.691 27.0947 373.255 27.6762 372.371C28.5728 371.014 30.6204 370.275 28.4759 368.566C26.8039 367.234 25.0834 368.47 24.7684 370.214Z" fill="#8FC7FF" stroke="#8FC7FF" stroke-width="0.630025" stroke-linecap="round" stroke-linejoin="round"/>
<path d="M38.9315 376.987C36.1449 377.775 35.5876 375.594 38.35 374.891C40.652 374.297 41.3062 376.321 38.9315 376.987Z" fill="#8FC7FF" stroke="#8FC7FF" stroke-width="0.630025" stroke-linecap="round" stroke-linejoin="round"/>
<path d="M48.7578 362.206C47.8734 362.763 46.6133 362.375 45.85 363.127C45.2321 363.732 46.2014 365.138 45.329 365.828C43.027 367.634 41.3671 363.72 43.0028 361.963C43.7176 361.188 44.7838 361.83 45.4865 361.37C45.8621 361.115 46.892 360.001 47.2797 359.843C48.4307 359.395 48.9274 357.456 49.9088 359.056C50.345 359.758 49.3394 361.854 48.7699 362.206H48.7578Z" fill="#8FC7FF" stroke="#8FC7FF" stroke-width="0.630025" stroke-linecap="round" stroke-linejoin="round"/>
<path d="M47.098 367.755C46.3226 368.458 45.2806 367.864 44.7233 368.906C43.6692 370.857 45.5835 371.475 47.0132 371.438C51.072 371.305 50.757 364.423 47.098 367.755Z" fill="#8FC7FF" stroke="#8FC7FF" stroke-width="0.630025" stroke-linecap="round" stroke-linejoin="round"/>
<path d="M53.1438 380.016C50.8539 380.331 50.2966 374.346 52.9379 374.564C52.3442 374.515 53.9556 377.435 53.895 377.157C54.0525 378.017 55.882 379.64 53.1438 380.016Z" fill="#8FC7FF" stroke="#8FC7FF" stroke-width="0.630025" stroke-linecap="round" stroke-linejoin="round"/>
<path d="M56.3663 377.775C56.6207 379.58 52.0651 385.177 56.8751 381.397C58.22 380.343 59.371 379.483 58.6441 377.338C58.7531 377.666 55.6272 374.418 55.918 374.54C53.616 373.57 56.3905 377.968 56.3663 377.775Z" fill="#8FC7FF" stroke="#8FC7FF" stroke-width="0.630025" stroke-linecap="round" stroke-linejoin="round"/>
<path d="M61.1646 372.347C60.4134 373.534 59.0806 374.116 60.7163 375.388C60.3286 375.085 63.8664 375 63.5514 375.254C65.599 373.582 62.7639 369.778 61.1646 372.334V372.347Z" fill="#8FC7FF" stroke="#8FC7FF" stroke-width="0.630025" stroke-linecap="round" stroke-linejoin="round"/>
<path d="M56.3302 352.089C55.9425 353.591 54.1857 353.846 53.059 352.888C51.3748 351.459 53.3255 349.641 53.8223 349.011C57.0572 344.953 57.1783 348.684 56.3181 352.077L56.3302 352.089Z" fill="#8FC7FF" stroke="#8FC7FF" stroke-width="0.630025" stroke-linecap="round" stroke-linejoin="round"/>
<path d="M62.3516 351.786C63.6117 352.392 60.7645 355.772 59.4923 353.179C58.4261 351.023 61.1764 351.217 62.3516 351.786Z" fill="#8FC7FF" stroke="#8FC7FF" stroke-width="0.630025" stroke-linecap="round" stroke-linejoin="round"/>
<path d="M58.2928 354.779C57.784 354.936 53.6161 354.524 55.7727 356.911C57.9899 359.358 60.7281 354.027 58.2928 354.779Z" fill="#8FC7FF" stroke="#8FC7FF" stroke-width="0.630025" stroke-linecap="round" stroke-linejoin="round"/>
<path d="M59.6743 361.128C56.4151 362.266 60.7647 358.111 61.8793 358.353C63.0061 358.607 63.5634 359.298 63.2121 360.607C62.5942 362.872 60.9464 360.679 59.6743 361.128Z" fill="#8FC7FF" stroke="#8FC7FF" stroke-width="0.630025" stroke-linecap="round" stroke-linejoin="round"/>
<path d="M57.1782 365.477C57.7113 366.81 58.7169 365.792 59.5044 366.119C58.8259 365.84 62.4122 367.27 61.8064 367.318C62.9575 367.234 64.2781 367.561 63.7329 365.174C63.1028 362.436 55.591 361.515 57.1782 365.477Z" fill="#8FC7FF" stroke="#8FC7FF" stroke-width="0.630025" stroke-linecap="round" stroke-linejoin="round"/>
<path d="M69.4393 347.327C70.9901 348.624 68.0459 349.326 67.2221 348.624C67.0403 348.466 65.2956 345.861 66.8586 346.128C66.9192 346.128 69.4029 347.303 69.4393 347.327Z" fill="#8FC7FF" stroke="#8FC7FF" stroke-width="0.630025" stroke-linecap="round" stroke-linejoin="round"/>
<path d="M72.5775 345.122C71.5961 341.584 69.912 347.012 72.1292 347.109C72.7229 346.6 72.8683 345.946 72.5775 345.122Z" fill="#8FC7FF" stroke="#8FC7FF" stroke-width="0.630025" stroke-linecap="round" stroke-linejoin="round"/>
<path d="M73.9708 348.842C73.365 349.011 71.9596 351.871 71.0751 352.549C69.8635 353.47 65.8532 354.512 69.7181 355.3C70.8813 355.542 74.8795 353.797 75.5216 352.986C76.6484 351.58 76.7453 348.066 73.9708 348.842Z" fill="#8FC7FF" stroke="#8FC7FF" stroke-width="0.630025" stroke-linecap="round" stroke-linejoin="round"/>
<path d="M78.0175 356.148C78.3567 354.246 78.2234 351.168 76.3455 354.124C74.8552 356.475 77.2421 360.485 78.0175 356.148Z" fill="#8FC7FF" stroke="#8FC7FF" stroke-width="0.630025" stroke-linecap="round" stroke-linejoin="round"/>
<path d="M73.7771 361.418C73.9468 360.146 76.0913 360.57 75.8732 361.757C75.6793 362.811 73.6196 362.593 73.7771 361.418Z" fill="#8FC7FF" stroke="#8FC7FF" stroke-width="0.630025" stroke-linecap="round" stroke-linejoin="round"/>
<path d="M73.1712 336.169C72.6139 336.399 70.2513 336.823 70.1302 336.859C69.4396 337.029 70.0696 338.362 68.7126 338.228C68.2522 338.18 68.228 336.35 67.8887 336.084C66.9195 335.296 65.6109 335.769 64.4721 334.763C62.7637 333.261 62.9091 331.783 65.2838 331.237C66.2289 331.019 67.7676 332.449 68.5309 332.049C69.3911 331.601 68.9913 330.486 69.4274 330.086C70.6633 328.984 68.3855 329.166 71.2085 327.99C71.8748 327.712 72.3837 328.027 73.0137 327.99C74.6615 327.857 75.7519 327.881 76.6121 329.154C77.7632 330.862 76.2123 332.413 75.9458 332.946C76.1033 332.643 74.8553 333.055 74.6736 333.261C73.7528 334.291 75.1461 335.357 73.1591 336.193L73.1712 336.169Z" fill="#8FC7FF" stroke="#8FC7FF" stroke-width="0.630025" stroke-linecap="round" stroke-linejoin="round"/>
<path d="M50.2238 401.292C49 402.479 52.5742 402.649 52.9619 403.036C54.3553 404.454 52.1259 405.823 55.0459 406.235C57.0692 406.513 58.7775 405.035 57.784 403.375C57.2146 402.43 50.9265 400.613 50.2238 401.292Z" fill="#8FC7FF" stroke="#8FC7FF" stroke-width="0.630025" stroke-linecap="round" stroke-linejoin="round"/>
<path d="M73.4377 380.961C72.9895 379.568 70.6632 378.32 69.488 379.628C68.8822 380.307 70.2634 381.749 69.7182 382.742C69.3062 383.505 66.5923 384.499 65.7321 385.189C64.4841 386.195 63.1514 387.504 61.7823 388.594C59.1653 390.654 55.7849 394.119 59.2137 397.099C59.4682 397.317 62.6667 398.783 62.8727 398.82C64.8961 399.147 64.6537 398.493 66.4348 398.141C67.4283 397.947 68.4824 397.535 69.6818 397.572C69.2941 397.572 73.0016 397.826 72.1656 397.996C74.2495 397.584 75.0492 396.057 76.6969 394.095C77.2664 393.416 78.2356 392.592 78.6112 391.708C78.793 391.284 79.4351 386.752 79.3503 386.365C78.8172 383.99 76.3698 382.015 73.4499 380.973L73.4377 380.961Z" fill="#8FC7FF" stroke="#8FC7FF" stroke-width="0.630025" stroke-linecap="round" stroke-linejoin="round"/>
<path d="M75.8487 434.986C73.3043 433.35 72.5168 435.555 74.9521 437.058C75.7881 437.579 74.8552 438.923 76.5635 437.906C78.0416 437.021 76.9391 435.689 75.8487 434.986Z" fill="#8FC7FF" stroke="#8FC7FF" stroke-width="0.630025" stroke-linecap="round" stroke-linejoin="round"/>
<path d="M95.7186 414.243C96.8211 413.383 97.8631 414.886 97.6814 412.329C97.5481 410.439 94.4585 409.894 93.2833 411.009C91.054 413.117 93.1985 416.194 95.7186 414.243Z" fill="#8FC7FF" stroke="#8FC7FF" stroke-width="0.630025" stroke-linecap="round" stroke-linejoin="round"/>
<path d="M91.8659 420.265C88.1099 420.883 88.5461 417.042 91.1995 416.424C93.6469 415.855 95.5249 419.659 91.8659 420.265Z" fill="#8FC7FF" stroke="#8FC7FF" stroke-width="0.630025" stroke-linecap="round" stroke-linejoin="round"/>
<path d="M100.65 414.837C98.9658 415.867 97.7057 422.554 101.159 421.234C102.043 420.895 103.594 413.044 100.65 414.837Z" fill="#8FC7FF" stroke="#8FC7FF" stroke-width="0.630025" stroke-linecap="round" stroke-linejoin="round"/>
<path d="M110.137 414.231C109.785 414.51 108.852 415.734 108.695 415.818C107.762 416.339 107.459 413.201 108.222 412.523C109.18 411.663 111.13 413.456 110.137 414.231Z" fill="#8FC7FF" stroke="#8FC7FF" stroke-width="0.630025" stroke-linecap="round" stroke-linejoin="round"/>
<path d="M119.393 412.571C117.963 412.062 116.982 412.571 116.182 413.637C114.171 416.315 115.904 416.327 117.273 417.09C121.15 419.235 123.004 413.88 119.393 412.583V412.571Z" fill="#8FC7FF" stroke="#8FC7FF" stroke-width="0.630025" stroke-linecap="round" stroke-linejoin="round"/>
<path d="M121.634 431.86C123.064 432.49 121.962 435.071 120.665 434.537C118.727 433.738 119.49 430.903 121.634 431.86Z" fill="#8FC7FF" stroke="#8FC7FF" stroke-width="0.630025" stroke-linecap="round" stroke-linejoin="round"/>
<path d="M148.423 428.928C147.054 426.165 148.592 426.311 150.046 426.601C154.129 427.425 149.828 431.775 148.423 428.928Z" fill="#8FC7FF" stroke="#8FC7FF" stroke-width="0.630025" stroke-linecap="round" stroke-linejoin="round"/>
<path d="M146.969 410.305C146.363 410.766 144.097 414.158 143.891 411.02C143.661 407.434 148.386 409.227 146.969 410.305Z" fill="#8FC7FF" stroke="#8FC7FF" stroke-width="0.630025" stroke-linecap="round" stroke-linejoin="round"/>
<path d="M103.739 404.054C96.8335 400.649 100.444 391.126 105.424 395.779C106.623 396.905 105.969 398.008 106.417 399.389C106.793 400.54 108.016 401.776 108.271 402.903C109.119 406.659 106.029 405.181 103.739 404.054Z" fill="#8FC7FF" stroke="#8FC7FF" stroke-width="0.630025" stroke-linecap="round" stroke-linejoin="round"/>
<path d="M109.167 401.316C108.513 402.588 111.409 402.442 111.736 402.576C112.342 402.564 112.935 402.491 113.517 402.345C114.292 402.479 114.619 402.879 114.498 403.545C115.492 403.763 114.983 404.502 116.788 403.739C116.437 403.884 118.242 401.4 118.036 402.067C118.254 401.364 118.593 399.45 116.17 399.365C114.801 399.317 114.631 400.746 113.456 401.013C112.208 401.291 110.027 399.619 109.167 401.304V401.316Z" fill="#8FC7FF" stroke="#8FC7FF" stroke-width="0.630025" stroke-linecap="round" stroke-linejoin="round"/>
<path d="M113.626 397.645C106.502 398.662 107.289 394.058 112.499 392.532C114.632 391.902 115.298 392.289 115.371 394.676C115.395 395.524 116.292 397.269 113.626 397.645Z" fill="#8FC7FF" stroke="#8FC7FF" stroke-width="0.630025" stroke-linecap="round" stroke-linejoin="round"/>
<path d="M117.067 397.402C117.745 399.002 121.804 400.068 122.737 398.214C124.252 395.221 115.771 394.349 117.067 397.402Z" fill="#8FC7FF" stroke="#8FC7FF" stroke-width="0.630025" stroke-linecap="round" stroke-linejoin="round"/>
<path d="M127.971 402.672C127.426 400.419 123.161 400.334 123.767 403.012C124.154 404.756 128.286 403.981 127.971 402.672Z" fill="#8FC7FF" stroke="#8FC7FF" stroke-width="0.630025" stroke-linecap="round" stroke-linejoin="round"/>
<path d="M132.612 400.068C132.442 398.965 126.626 396.748 127.68 399.559C128.068 400.589 133.036 402.709 132.612 400.068Z" fill="#8FC7FF" stroke="#8FC7FF" stroke-width="0.630025" stroke-linecap="round" stroke-linejoin="round"/>
<path d="M131.4 390.254C133.242 390.981 132.587 393.889 130.782 393.283C128.65 392.568 128.831 389.236 131.4 390.254Z" fill="#8FC7FF" stroke="#8FC7FF" stroke-width="0.630025" stroke-linecap="round" stroke-linejoin="round"/>
<path d="M142.619 392.532C140.62 393.125 136.077 393.283 134.926 391.138C133.726 388.909 135.471 387.903 137.519 387.322C137.773 387.249 140.124 387.273 140.62 387.273C141.783 387.273 142.28 386.462 143.492 387.358C145.224 388.643 144.679 391.914 142.619 392.532Z" fill="#8FC7FF" stroke="#8FC7FF" stroke-width="0.630025" stroke-linecap="round" stroke-linejoin="round"/>
<path d="M165.446 389.963C170.958 391.235 167.505 397.075 163.846 394.567C164.052 394.7 162.514 390.823 162.453 391.284C162.635 389.878 162.914 389.369 165.458 389.951L165.446 389.963Z" fill="#8FC7FF" stroke="#8FC7FF" stroke-width="0.630025" stroke-linecap="round" stroke-linejoin="round"/>
<path d="M161.399 383.19C161.665 383.081 161.932 382.96 162.199 382.851C163.289 383.348 161.871 385.298 162.538 386.074C162.974 386.583 164.694 385.395 165.361 386.522C165.845 387.346 157.219 388.218 161.399 383.19Z" fill="#8FC7FF" stroke="#8FC7FF" stroke-width="0.630025" stroke-linecap="round" stroke-linejoin="round"/>
<path d="M182.589 385.371C181.208 384.45 180.493 382.257 182.371 381.337C184.528 380.283 183.704 382.124 184.601 383.045C187.145 385.662 186.491 387.976 182.602 385.371H182.589Z" fill="#8FC7FF" stroke="#8FC7FF" stroke-width="0.630025" stroke-linecap="round" stroke-linejoin="round"/>
<path d="M181.596 350.175C184.867 350.114 181.281 352.44 181.281 352.319C181.281 352.041 179.04 350.223 181.596 350.175Z" fill="#8FC7FF" stroke="#8FC7FF" stroke-width="0.630025" stroke-linecap="round" stroke-linejoin="round"/>
<path d="M181.281 347.509C181.136 348.224 184.48 349.908 185.206 348.963C186.006 347.921 181.766 345.062 181.281 347.509Z" fill="#8FC7FF" stroke="#8FC7FF" stroke-width="0.630025" stroke-linecap="round" stroke-linejoin="round"/>
<path d="M184.722 369.584C184.443 372.565 179.488 372.334 181.681 376.672C181.293 375.908 183.983 377.774 183.716 377.641C185.073 378.368 185.558 380.719 187.266 378.659C187.775 378.053 188.211 372.407 188.042 371.874C187.993 371.716 184.589 369.16 184.94 368.712C184.867 369.002 184.795 369.293 184.722 369.584Z" fill="#8FC7FF" stroke="#8FC7FF" stroke-width="0.630025" stroke-linecap="round" stroke-linejoin="round"/>
<path d="M184.819 366.943C185.473 367.028 189.144 369.318 186.757 366.386C184.516 363.648 183.801 366.81 184.819 366.943Z" fill="#8FC7FF" stroke="#8FC7FF" stroke-width="0.630025" stroke-linecap="round" stroke-linejoin="round"/>
<path d="M185.751 336.883C185.061 335.26 183.534 334.957 182.347 333.866C180.881 332.497 180.832 331.322 179.742 329.759C178.191 327.542 175.829 327.191 173.999 325.373C169.347 320.781 172.569 311.21 165.312 308.387C163.979 307.878 162.162 307.745 160.817 308.278C159.036 308.993 159.048 310.652 157.643 311.416C156.189 312.203 155.91 311.125 154.662 311.392C153.79 311.573 152.893 312.3 152.082 312.506C150.095 313.027 149.695 312.785 147.599 312.506C145.624 312.24 144.182 313.063 142.534 312.942C141.662 312.882 141.383 311.864 141.008 311.816C139.651 311.67 139.105 311.985 137.482 312.264C135.337 312.639 131.363 313.318 131.109 310.289C131.06 309.683 132.49 308.968 132.454 308.072C132.369 306.012 131.266 306.897 130.406 305.697C129.582 304.546 129.498 304.825 129.061 303.419C128.589 301.917 131.097 300.826 128.722 299.385C125.269 297.277 125.33 302.874 123.427 303.698C119.066 305.588 116.303 292.273 109.409 299.288C107.725 301.008 106.805 304.534 105.617 306.703C105.048 307.284 104.696 307.975 104.563 308.762C104.563 309.756 104.042 309.889 103.012 309.162C101.861 310.192 100.819 310.289 99.85 311.876C99.3048 310.749 98.3234 309.053 96.8211 309.744C95.355 310.422 96.4576 312.022 95.5247 312.991C91.999 316.65 90.436 310.459 89.5637 308.35C88.8852 306.715 86.1712 300.124 83.2755 301.347C80.61 302.474 80.4041 310.507 78.9138 312.555C77.3751 314.675 74.7217 315.511 74.3583 318.576C73.9221 322.223 75.8 322.623 78.199 324.755C80.1496 326.488 81.7126 329.347 83.3482 331.334C85.1414 333.515 84.5962 339.185 81.446 336.75C80.2708 335.841 81.1916 332.134 77.993 333.576C76.5997 334.206 76.6239 335.417 77.3509 336.471C78.0778 337.513 79.3258 335.866 79.98 337.198C80.8039 338.87 79.2288 338.931 78.8169 339.525C78.0536 340.627 74.4552 343.002 74.225 344.577C73.9221 346.637 76.1878 347.945 77.8597 346.673C79.2773 345.595 77.8961 342.881 79.9921 342.675C81.3128 342.541 80.7312 351.871 80.6222 353.24C80.3435 356.911 75.8122 360.727 81.9307 359.964C82.6819 359.867 91.4416 357.989 89.7818 361.369C89.2123 362.545 81.9307 360.691 80.077 362.545C76.5391 366.095 84.9354 365.755 86.9103 366.664C90.6056 368.36 91.2114 373.788 86.7891 371.268C84.1236 369.754 83.433 363.272 79.98 368.506C76.1151 374.358 83.2513 373.497 84.8506 377.496C79.035 379.543 77.4842 370.941 76.1514 367.379C75.2791 365.028 74.7096 360.824 71.7412 365.137C70.1419 367.452 70.8689 371.147 71.6201 373.582C72.6863 377.059 73.813 379.143 76.8784 380.561C79.5439 381.797 82.7303 382.124 84.79 384.608C86.8861 387.128 84.8869 390.169 86.7043 392.277C88.4854 394.337 89.7091 391.393 89.0427 394.506C88.8731 395.282 86.7043 397.269 86.8134 398.323C87.2132 402.309 88.5338 397.862 90.2785 398.904C92.0717 399.971 88.7034 403.06 89.9998 404.369C91.272 405.653 91.5507 403.605 92.2776 403.436C92.5199 402.806 92.9561 402.357 93.574 402.103C93.9011 402.273 94.2283 402.43 94.5554 402.6C97.4996 401.109 97.0392 401.388 97.8267 397.729C98.7111 393.634 101.037 394.179 103.945 391.768C106.102 389.987 108.234 386.934 108.985 384.268C109.203 383.493 109.01 375.945 109.93 376.054C111.178 376.199 110.597 384.208 110.657 385.068C110.815 387.552 110.73 388.279 112.426 389.902C112.778 390.242 115.71 392.18 116.243 392.168C117.878 392.119 117.442 390.896 118.727 390.496C119.381 390.29 120.108 391.611 120.92 391.259C121.719 390.92 121.525 389.309 122.131 388.691C123.234 387.564 124.215 388.049 124.966 386.219C125.33 385.335 124.494 384.462 124.724 383.638C124.93 382.899 125.826 382.306 126.02 381.615C126.42 380.173 126.19 378.174 126.711 376.781C127.789 373.934 132.321 372.286 134.659 370.323C137.555 367.888 136.597 369.802 140.135 368.687C143.31 367.682 142.97 363.332 145.478 363.429C145.721 363.429 146.775 365.259 148.083 365.222C148.859 365.198 149.804 363.89 149.84 363.89C152.409 363.914 153.39 369.56 150.628 370.59C147.732 371.668 148.956 366.809 146.593 367.197C144.352 367.561 145.381 373.182 143.467 374.212C142.777 374.588 141.977 373.11 140.995 373.606C139.675 374.285 140.475 375.133 139.857 375.957C139.554 376.369 139.057 377.314 138.706 377.799C137.979 378.792 136.016 379.228 135.846 380.852C135.543 383.784 138.439 384.462 140.535 384.571C144.121 384.741 145.248 383.784 147.623 386.583C147.926 386.934 149.828 390.532 150.373 390.508C151.742 390.46 151.076 388.8 151.718 388.4C152.845 387.685 153.826 387.927 155.026 387.334C156.673 386.51 160.042 383.784 159.145 381.773C159.097 381.651 156.758 380.5 156.734 380.488C156.698 380.488 155.777 379.616 155.401 379.458C155.135 379.337 153.984 380.573 153.729 380.403C150.349 378.089 156.383 377.811 157.909 378.283C160.187 378.986 159.618 378.853 161.677 378.489C170.837 376.866 157.437 369.838 156.189 366.167C155.438 363.974 156.988 361.684 156.467 359.564C156.407 359.298 155.244 356.911 155.207 356.959C156.358 355.202 155.789 357.032 157.182 356.475C158.588 355.917 162.186 356.111 163.688 355.166C165.918 353.761 164.391 351.398 166.306 354.948C166.96 356.172 167.057 357.553 167.929 358.74C168.753 359.867 170.207 360.303 170.873 361.648C172.969 365.864 167.505 367.076 168.644 370.88C168.983 372.007 172.594 374.83 173.793 374.867C178.3 374.963 173.587 370.032 174.12 367.973C174.144 367.9 178.24 363.235 177.84 363.296C179.924 362.957 178.7 368.506 182.71 364.944C184.504 363.344 184.649 361.103 185.23 359.092C186.03 356.329 185.945 352.755 181.487 353.688C178.009 354.427 176.519 358.861 173.345 354.197C172.545 353.022 170.716 348.817 172.775 348.405C174.35 348.09 175.368 350.55 177.428 349.738C179.245 349.023 178.882 347.061 180.19 346.067C180.99 345.473 181.62 345.825 182.408 345.413C184.6 344.25 183.559 345.473 184.71 343.547C185.606 342.045 186.406 338.47 185.715 336.847L185.751 336.883Z" fill="#8FC7FF" stroke="#8FC7FF" stroke-width="0.630025" stroke-linecap="round" stroke-linejoin="round"/>
<path d="M74.431 84.0376C74.3098 84.1466 68.7607 86.1094 68.7486 86.1094C66.3376 85.8065 66.1922 83.6741 67.5976 81.8325C69.4392 79.4457 79.0956 79.7607 74.431 84.0376Z" fill="#FFB5A7" stroke="#FFB5A7" stroke-width="0.630025" stroke-linecap="round" stroke-linejoin="round"/>
<path d="M66.241 94.5418C65.9017 94.7841 62.9455 94.2995 62.7758 93.7906C61.9762 91.2947 69.2336 92.3488 66.241 94.5418Z" fill="#FFB5A7" stroke="#FFB5A7" stroke-width="0.630025" stroke-linecap="round" stroke-linejoin="round"/>
<path d="M70.7114 97.692C71.5353 95.5475 67.4644 94.9781 67.6098 96.5289C67.6703 97.1468 70.3601 98.6249 70.7114 97.692Z" fill="#FFB5A7" stroke="#FFB5A7" stroke-width="0.630025" stroke-linecap="round" stroke-linejoin="round"/>
<path d="M76.0061 91.0768C77.1693 92.2035 80.7556 92.5185 78.4172 95.1356C76.1394 97.6799 76.1394 94.5177 75.2065 93.5726C74.007 92.361 72.6864 92.0339 72.5047 90.0227C72.4562 89.4411 73.4255 85.0188 74.9884 85.9396C76.3939 86.7756 74.7946 89.9136 75.994 91.0646L76.0061 91.0768Z" fill="#FFB5A7" stroke="#FFB5A7" stroke-width="0.630025" stroke-linecap="round" stroke-linejoin="round"/>
<path d="M80.913 107.518C80.8161 106.573 74.7703 103.35 74.4189 105.906C74.4916 105.349 76.9269 109.117 76.5877 108.972C77.2177 109.238 81.01 108.511 80.913 107.53V107.518Z" fill="#FFB5A7" stroke="#FFB5A7" stroke-width="0.630025" stroke-linecap="round" stroke-linejoin="round"/>
<path d="M86.5712 106.985C86.6681 105.701 84.0995 105.882 83.6755 106.137C82.9243 106.597 83.4089 107.627 83.2151 107.845C83.1908 107.881 82.5124 109.881 82.1731 110.401C81.5552 111.334 79.1563 111.892 78.8291 113.031C77.9931 115.878 81.1675 116.532 83.5301 117.102C84.8265 117.417 85.4444 118.41 86.8135 117.598C88.2189 116.75 87.1164 114.642 88.0493 113.842C89.5759 112.546 90.424 113.758 92.1687 112.873C92.9199 112.498 94.7251 110.595 94.0224 109.384C93.1016 107.784 91.9991 109.141 90.9086 108.948C89.9273 108.766 89.382 107.591 88.2553 108.063C87.3708 108.427 87.4556 109.602 86.971 109.832C82.9485 111.734 86.45 108.681 86.5712 106.997V106.985Z" fill="#FFB5A7" stroke="#FFB5A7" stroke-width="0.630025" stroke-linecap="round" stroke-linejoin="round"/>
<path d="M82.258 122.493C83.5908 124.359 85.1174 120.216 82.7184 118.956C80.1014 117.574 81.3615 121.246 82.258 122.493Z" fill="#FFB5A7" stroke="#FFB5A7" stroke-width="0.630025" stroke-linecap="round" stroke-linejoin="round"/>
<path d="M72.5894 131.192C69.4635 132.78 76.2847 135.154 77.0359 134.645C79.5681 132.925 73.3648 130.805 72.5894 131.192Z" fill="#FFB5A7" stroke="#FFB5A7" stroke-width="0.630025" stroke-linecap="round" stroke-linejoin="round"/>
<path d="M84.1115 130.938C85.5412 129.145 90.0967 130.393 87.3707 133.616C84.8021 136.645 81.8216 133.81 84.1115 130.938Z" fill="#FFB5A7" stroke="#FFB5A7" stroke-width="0.630025" stroke-linecap="round" stroke-linejoin="round"/>
<path d="M60.2557 133.567C58.3172 130.889 56.5119 132.162 57.6872 135.069C59.1895 138.765 60.5586 136.366 62.4002 136.269C62.6789 136.257 66.2289 139.443 64.8355 135.954C64.2297 134.427 60.9342 134.512 60.2557 133.567Z" fill="#FFB5A7" stroke="#FFB5A7" stroke-width="0.630025" stroke-linecap="round" stroke-linejoin="round"/>
<path d="M59.0679 139.383C60.1099 140.425 59.9887 142.666 57.9775 141.442C56.2328 140.376 57.4081 137.723 59.0679 139.383Z" fill="#FFB5A7" stroke="#FFB5A7" stroke-width="0.630025" stroke-linecap="round" stroke-linejoin="round"/>
<path d="M91.1024 95.5111C91.6355 96.5652 91.369 100.503 90.3149 101.23C89.1518 102.029 85.2505 100.866 83.7723 100.757C82.2821 100.648 80.0528 101.181 79.2774 99.3518C78.2596 96.9166 80.4647 98.0191 80.8282 96.5167C81.5794 93.3666 80.3436 93.2576 78.5262 90.9798C75.8122 87.5752 76.0909 81.5294 81.0947 80.124C84.1237 79.2638 87.7948 81.2265 89.4305 84.0737C91.4417 87.5873 89.2245 91.8037 91.1146 95.499L91.1024 95.5111Z" fill="#FFB5A7" stroke="#FFB5A7" stroke-width="0.630025" stroke-linecap="round" stroke-linejoin="round"/>
<path d="M72.4564 141.127C71.4629 139.068 67.4767 139.552 69.2335 141.721C69.8151 142.436 73.365 143.017 72.4564 141.127Z" fill="#FFB5A7" stroke="#FFB5A7" stroke-width="0.630025" stroke-linecap="round" stroke-linejoin="round"/>
<path d="M110.391 114.279C111.372 111.153 108.634 109.747 108.428 106.767C108.234 103.932 109.882 101.993 106.502 100.648C103.376 99.4126 100.48 101.933 98.178 103.508C95.5367 105.325 96.2515 104.453 95.6821 107.288C95.3792 108.766 95.5125 111.044 95.7063 112.51C96.0698 115.224 97.8872 115.212 98.5899 117.308C99.1836 119.077 96.2394 121.585 99.7288 122.033C100.795 122.166 100.759 120.724 101.57 120.724C102.164 120.724 103.618 121.1 103.981 121.015C107.822 120.131 109.094 118.325 110.367 114.279H110.391Z" fill="#FFB5A7" stroke="#FFB5A7" stroke-width="0.630025" stroke-linecap="round" stroke-linejoin="round"/>
<path d="M55.6152 147.852C55.4577 146.119 57.6022 145.877 58.4382 146.979C59.2499 148.058 55.809 149.911 55.6152 147.852Z" fill="#FFB5A7" stroke="#FFB5A7" stroke-width="0.630025" stroke-linecap="round" stroke-linejoin="round"/>
<path d="M134.49 161.361C139.542 159.059 142.68 164.123 147.163 165.82C150.059 166.922 147.454 166.559 149.526 165.359C150.374 164.875 150.992 163.627 152.13 163.009C153.051 162.512 154.275 162.839 155.159 162.064C156.323 161.034 155.511 159.641 156.238 158.853C157.534 157.435 159.691 157.375 161.46 155.969C162.562 155.097 162.55 153.631 164.101 153.001C165.325 152.504 166.694 153.316 167.93 152.722C168.996 152.214 169.008 151.002 170.062 150.323C171.346 149.475 172.909 150.251 174.157 149.088C176.084 147.307 174.29 142.775 175.672 141.976C179.064 144.956 181.087 143.454 182.263 139.795C182.493 139.068 183.498 134.173 182.469 134.67C185.619 133.167 185.485 129.92 185.279 127.037C184.964 122.578 186.14 122.857 187.812 119.174C189.375 115.721 186.976 114.291 186.37 111.262C185.473 106.779 189.92 108.669 190.477 105.592C191.131 101.933 185.328 102.611 183.341 102.272C180.07 101.715 179.5 100.333 176.98 98.3827C173.915 96.008 172.788 97.4619 169.735 97.7285C166.997 97.9708 167.421 97.571 168.087 94.9055C168.547 93.0154 170.098 91.5736 168.79 89.732C167.796 88.3266 166.585 90.8709 165.833 88.8233C165.506 87.9389 166.863 86.8 167.021 86.0367C167.215 85.0916 168.111 84.3526 168.172 83.2864C168.269 81.6386 166.476 79.9787 167.094 78.2704C168.039 75.6776 173.697 75.7988 174.339 72.2488C175.042 68.3475 170.789 68.5777 169.19 66.7119C168.499 65.9122 169.771 64.6522 169.274 63.8768C167.93 61.7686 167.118 63.3679 165.312 62.7742C161.993 61.6717 161.411 61.2355 161.193 57.3342C161.023 54.281 160.636 50.9249 156.977 54.5112C156.347 49.3256 154.069 54.2447 152.445 54.39C151.84 54.4385 149.077 52.6817 148.786 52.1123C147.95 50.5251 148.908 48.7441 149.429 47.0236C147.357 45.9816 146 50.198 143.746 49.5437C142.159 49.0833 142.256 46.3693 140.427 46.127C138.961 47.8596 141.868 55.8318 136.234 51.5792C134.986 50.6341 133.448 48.2352 132.357 47.0721C130.661 45.2305 130.467 42.5529 128.65 40.687C126.954 42.1167 124.688 43.4494 124.034 45.5576C123.707 46.6359 124.773 48.3806 124.228 49.471C123.598 50.7068 120.241 52.1728 119.26 53.2512C116.898 55.844 116.849 59.4545 114.692 62.2169C112.003 65.6699 108.84 65.5245 105.194 67.1238C102.613 68.2627 103.461 67.2207 102.964 70.383C102.758 71.6915 102.613 73.9572 102.94 75.2899C103.061 75.7988 104.636 77.9554 104.6 78.4037C104.539 79.0337 103.013 79.0216 102.783 79.8697C102.007 82.7169 102.516 87.0059 102.613 89.9501C102.734 93.4031 102.31 92.2642 104.2 94.3603C105.496 95.8021 107.265 95.9959 108.271 98.0677C103.194 97.4014 101.922 93.8635 101.353 89.6836C100.529 83.6377 100.856 85.4793 96.4702 86.2911C95.5009 86.4728 93.2716 85.4067 92.4235 86.1457C91.115 87.2967 91.4906 91.6827 91.5754 93.2214C91.8298 97.7406 94.7982 100.951 95.4524 105.301C98.6753 104.416 100.081 101.121 103.703 100.685C107.665 100.2 108.429 101.545 108.731 104.889C108.877 106.5 108.332 107.591 108.925 109.275C109.289 110.305 110.464 110.971 110.658 112.11C111.324 115.951 107.799 120.131 104.588 121.354C105.981 122.614 101.789 123.802 102.104 125.571C102.516 127.97 109.337 126.637 109.18 129.23C108.998 132.283 103.037 129.666 102.577 129.775C98.8207 130.587 101.947 132.525 99.8384 134.924C98.7964 134.73 99.172 132.271 98.5056 131.507C98.9055 131.956 95.3434 130.09 95.9977 130.175C92.7264 129.69 93.6108 130.381 92.5446 132.998C92.4598 133.192 91.4421 137.032 91.4542 137.057C92.69 140.534 96.1188 135.724 97.3546 135.881C100.42 136.257 99.1236 138.801 100.529 140.691C100.432 141.612 100.808 142.23 101.644 142.521C102.14 142.109 102.71 141.915 103.352 141.915C103.982 142.46 100.456 151.038 105.242 144.653C106.03 143.599 106.829 141.237 108.453 140.909C110.343 140.534 112.499 141.37 111.615 143.732C111.106 145.101 109.18 145.114 108.574 146.858C108.235 147.84 109.059 149.742 108.901 150.893C108.586 153.11 105.848 152.783 108.671 154.516C109.761 155.182 112.1 153.51 112.742 155.4C110.282 157.011 110.113 156.054 111.845 157.641C112.075 157.859 113.299 157.823 113.747 158.175C114.462 158.732 114.692 160.319 115.298 161.046C116.522 162.524 119.393 164.657 121.429 164.184C124.264 163.542 123.125 160.258 125.136 159.556C125.718 160.888 125.5 162.633 124.712 163.833C128.153 163.215 131.218 162.863 134.453 161.385L134.49 161.361Z" fill="#8FC7FF" stroke="#8FC7FF" stroke-width="0.630025" stroke-linecap="round" stroke-linejoin="round"/>
<path d="M186.37 143.902C188.575 144.859 195.651 143.381 197.359 141.563C199.334 139.455 198.316 132.053 203.138 134.112C204.713 134.791 205.053 137.226 206.3 138.232C208.99 140.388 208.772 138.716 211.001 137.662C211.45 136.875 212.092 136.269 212.928 135.857C213.994 135.699 214.806 136.063 215.351 136.947C216.938 136.426 216.538 134.706 218.525 134.754C220.779 134.815 221.554 137.444 223.977 137.335C225.637 137.262 228.315 134.73 227.418 138.074C226.837 140.243 221.845 141.866 226.437 143.514C228.145 144.12 229.805 142.472 231.501 142.787C233.767 143.211 232.786 144.399 234.409 145.113C237.777 146.592 240.346 145.053 244.041 146.979C247.313 148.7 251.105 148.93 254.17 150.856C256.642 152.407 258.205 156.236 260.943 152.916C263.184 150.19 259.647 144.605 264.457 144.374C269.424 144.144 267.619 150.263 270.793 151.232C271.92 151.571 273.592 149.717 274.561 149.463C276.572 148.942 277.966 149.524 279.892 149.705C284.133 150.105 287.016 146.688 290.821 148.809C293.886 150.517 294.637 154.855 298.405 150.917C301.301 147.888 301.471 144.302 306.159 142.69C303.7 139.261 306.22 134.27 303.567 130.308C302.137 128.175 300.283 126.952 299.29 124.504C298.769 123.232 299.508 122.299 298.587 120.942C297.908 119.949 296.273 119.803 295.437 118.919C294.104 117.513 293.995 115.623 292.977 114.048C291.778 112.183 289.742 111.165 288.894 108.935C288.022 106.646 288.797 104.331 287.501 102.26C286.035 99.9091 283.975 99.4003 283.224 96.4925C282.606 94.1178 283.612 93.9118 281.491 91.4038C279.747 89.3441 277.663 87.8296 275.858 85.8669C271.726 81.3961 268.988 76.1257 266.129 71.1097C263.148 65.8515 257.49 62.3136 254.897 56.6919C253.795 54.305 253.116 53.36 251.493 51.3245C249.384 48.6833 249.966 46.2965 248.972 43.2796C247.216 37.9607 243.763 31.9755 241.085 26.9959C238.323 21.8467 236.517 16.6005 234.494 11.1847C233.779 9.27039 231.574 3.44266 229.102 4.35135C226.485 5.3085 227.685 9.67021 227.527 11.4876C227.297 14.2379 226.607 17.594 225.443 20.1262C222.875 25.7237 217.459 28.4135 212.383 31.0911C210.529 32.0603 209.22 33.0417 207.185 33.5021C203.344 34.3745 199.516 32.4238 195.711 32.8236C193.24 33.0902 191.628 34.3139 189.072 33.8292C186.37 33.3204 184.783 32.4965 181.742 32.545C178.688 32.6055 175.684 32.2421 172.618 32.1088C171.419 32.0603 170.292 31.7817 169.117 32.0846C167.99 32.3753 167.033 33.7202 165.991 33.8777C163.241 34.2896 160.612 31.7817 157.619 31.6847C154.372 31.5878 151.622 32.6177 148.362 32.3632C145.273 32.1209 143.613 33.805 140.681 34.1079C136.78 34.5198 135.398 34.9439 132.127 37.6457C131.497 38.1788 128.771 40.0689 128.65 40.5778C128.783 39.9962 130.782 45.7149 130.685 45.5695C131.752 47.0961 133.969 48.7075 135.277 50.1372C136.331 51.2882 138.427 53.9537 140.039 51.7607C141.238 50.1251 138.973 47.714 140.414 46.0178C142.208 46.2601 142.159 48.9741 143.734 49.4345C146.012 50.1008 147.32 45.8603 149.416 46.9144C149.041 48.1381 147.902 50.2826 148.362 51.6395C148.593 52.3423 151.791 54.3535 152.433 54.2929C153.996 54.1475 156.335 49.2043 156.965 54.4141C159.654 51.7849 161.048 52.9723 161.29 56.1467C161.629 60.5084 161.193 61.3928 165.288 62.6771C166.512 63.0648 167.675 61.8532 168.778 63.2587C169.601 64.3006 168.523 65.3305 168.971 66.1544C170.256 68.4685 174.145 67.6688 174.266 71.3278C174.424 75.8713 168.378 75.1322 167.057 78.1733C166.233 80.0755 168.087 82.9833 167.336 85.358C167.118 86.0365 165.422 87.8417 165.797 88.7262C166.464 90.3013 167.396 88.5323 168.329 89.5016C170.147 91.3796 168.547 92.5427 168.051 94.8205C166.754 100.733 172.243 95.2082 176.314 97.8373C179.173 99.6789 179.803 101.545 183.317 102.187C185.255 102.538 190.211 101.727 190.55 104.889C190.865 107.881 186.164 106.839 186.212 110.377C186.261 113.685 189.496 115.357 187.8 119.101C186.406 122.178 184.807 122.299 185.061 126.067C185.279 129.242 186.176 132.84 182.456 134.609C182.178 134.742 184.625 143.126 186.346 143.865L186.37 143.902Z" fill="#BEF8F5" stroke="#BEF8F5" stroke-width="0.630025" stroke-linecap="round" stroke-linejoin="round"/>
<path d="M174.666 311.537C175.804 309.405 174.229 307.309 175.065 305.188C175.974 302.874 177.9 304.316 177.428 301.02C177.428 301.105 175.683 299.7 175.538 299.227C174.968 297.434 176.216 295.544 175.138 293.412C173.527 290.213 172.206 290.443 172.981 286.481C173.393 284.397 174.46 282.192 175.199 280.218C175.926 278.279 177.549 275.977 177.925 273.978C178.203 272.512 177.355 270.888 178.446 269.628C178.955 269.035 181.669 267.847 182.456 267.266C183.825 266.248 185.461 265.23 186.83 264.188C188.356 263.037 189.144 262.431 190.658 261.486C191.676 261.644 192.536 261.353 193.239 260.638C193.36 259.548 193.385 258.457 193.336 257.355C194.027 255.344 196.074 255.368 195.832 252.678C195.687 251.091 194.451 249.71 193.348 248.704C189.847 245.53 189.229 248.571 185.764 248.389C185.788 248.389 182.395 246.644 182.286 246.596C181.39 247.069 180.566 246.984 179.839 246.342C179.766 245.821 179.669 245.3 179.524 244.791C175.829 244.633 172.145 249.189 168.026 250.025C163.458 250.958 160.514 250.146 157.497 246.826C155.983 245.166 153.535 243.955 152.251 242.271C151.088 240.744 152.651 238.781 150.579 238.272C149.671 238.054 146.702 240.332 145.6 240.611C143.685 241.108 140.959 241.289 138.996 240.926C134.926 240.175 134.974 236.588 131.788 235.728C130.237 235.304 126.747 235.365 124.978 235.219C123.125 235.062 121.78 234.941 120.156 236.128C116.667 238.672 116.449 243.7 112.305 246.136C114.014 247.081 110.306 247.456 110.657 247.214C110.73 247.165 107.301 249.601 107.604 249.443C104.248 251.139 99.6078 251.164 95.9003 251.576C93.9133 251.794 89.067 251.782 92.8471 254.059C93.9981 254.75 95.8034 254.047 96.6394 254.895C97.8995 256.18 96.385 258.191 97.645 259.548C99.1595 261.184 103.061 258.954 105.036 259.027C106.393 259.075 107.168 259.766 108.61 259.451C109.834 259.184 111.433 256.289 112.899 257.403C113.662 257.985 110.197 261.898 109.434 262.189C107.362 262.94 102.007 260.614 104.612 265.085C105.121 265.945 111.954 268.126 109.846 269.737C109.082 270.319 103.764 268.029 101.801 268.308C97.6208 268.889 99.3049 270.052 97.8631 273.093C96.9786 274.971 96.07 275.008 94.4343 276.086C92.7381 277.201 91.6598 278.497 90.0726 279.818C89.1881 280.545 85.614 281.95 85.299 282.798C83.6754 287.281 89.6485 287.523 92.3262 287.136C93.7316 286.93 97.9237 286.009 99.2807 287.027C101.34 288.577 99.8865 287.584 99.1716 288.65C97.3542 291.364 92.9077 291.085 90.2059 292.2C86.2561 293.824 84.7174 297.64 83.2393 301.311C89.7939 302.147 87.4435 310.132 91.4296 313.076C96.2759 316.662 96.5425 305.007 99.8138 311.84C100.504 310.701 101.316 310.156 102.31 309.38C102.746 309.078 103.194 309.053 103.654 309.296C104.539 309.756 104.89 309.32 104.733 307.999C106.429 306.291 106.853 304.098 107.834 302.087C110.742 296.138 115.576 296.598 119.538 301.275C125.427 308.229 123.827 296.332 128.698 299.361C131.085 300.851 128.213 303.444 129.34 305.14C129.922 306.024 131.594 305.54 132.139 306.4C132.878 307.551 131.848 308.242 131.945 309.162C132.139 310.98 129.704 310.81 133.035 312.385C135.786 313.682 137.845 310.955 140.22 311.283C141.141 311.416 141.068 312.797 141.638 312.858C142.304 312.918 142.922 312.385 143.443 312.434C146.218 312.712 149.537 312.918 152.069 312.47C152.675 312.361 153.257 311.27 154.056 311.101C155.195 310.859 155.753 312.106 157.013 311.731C159.169 311.089 159.412 308.266 162.259 307.927C164.937 307.599 167.335 309.223 168.801 311.319C169.116 311.767 169.819 313.997 170.195 314.154C171.297 314.614 174.217 312.325 174.653 311.501L174.666 311.537Z" fill="#5CADFF" stroke="#5CADFF" stroke-width="0.630025" stroke-linecap="round" stroke-linejoin="round"/>
<path d="M196.668 245.324C200.412 244.064 202.436 238.951 202.969 234.856C203.259 232.602 202.084 232.59 203.902 231.257C204.277 230.979 205.864 231.681 206.506 231.221C208.336 229.876 206.858 230.179 206.555 228.81C206.385 228.059 205.804 226.011 205.125 225.563C203.78 224.666 203.538 225.66 202.436 225.466C201.587 225.321 201.127 225.999 200.037 225.623C199.249 225.357 198.873 224.061 198.183 223.661C193.979 221.153 190.162 226.447 192.84 218.851C193.761 216.246 193.761 213.92 194.003 211.109C194.257 208.189 195.505 205.063 195.505 202.191C195.505 198.084 191.483 197.636 189.157 195.152C185.897 191.663 192.282 192.111 193.712 189.615C194.863 187.604 193.773 187.119 195.699 185.774C197.395 184.587 200.037 185.665 200.146 182.309C200.412 183.351 208.53 183.739 208.493 183.787C209.317 182.552 204.653 178.638 206.846 175.682C208.554 173.38 212.019 174.095 214.321 173.719C217.253 173.247 219.846 170.399 222.633 170.375C226.643 170.327 226.134 174.87 229.248 175.549C232.737 176.3 236.639 173.295 236.772 170.096C236.99 165.19 235.233 164.293 240.043 161.252C243.024 159.362 244.708 158.889 246.537 155.897C247.543 154.249 247.046 153.861 248.67 152.65C250.16 151.535 252.147 152.032 253.589 150.469C251.929 149.257 249.99 149.621 248.124 149.124C245.75 148.494 244.369 146.543 242.176 145.768C239.898 144.956 238.105 146.567 236.021 146.022C234.215 145.55 233.913 143.66 232.192 143.03C229.224 141.951 222.621 145.659 225.625 139.904C226.061 139.056 229.03 137.299 226.97 136.111C226.813 136.027 223.723 137.626 222.863 137.456C221.421 137.19 220.731 135.36 219.289 135.118C217.58 134.827 215.945 136.148 214.854 136.523C214.491 136.645 213.049 136.075 212.165 136.414C211.001 136.863 210.917 138.45 209.766 138.91C205.307 140.703 203.199 129.835 199.298 135.603C198.098 137.359 198.873 139.916 197.311 141.588C195.978 143.005 192.767 143.442 190.901 143.805C184.371 145.041 185.352 141.491 182.856 136.996C182.141 141.273 180.324 146.119 175.635 141.988C174.242 142.787 175.902 145.404 175.599 146.58C174.848 149.475 173.285 148.724 171.395 150.02C170.256 150.796 168.499 152.613 167.287 153.049C164.84 153.922 164.368 153.049 162.15 154.77C161.726 155.594 161.205 156.345 160.587 157.036C159.921 157.617 159.158 157.835 158.297 157.714C157.522 157.544 156.844 157.738 156.286 158.283C156.092 159.083 156.056 159.895 156.189 160.707C154.42 163.142 148.581 162.924 148.496 166.934C148.423 170.315 154.675 173.113 156.662 175.221C157.522 176.142 159.545 179.474 158.176 180.746C156.383 182.406 155.789 179.547 153.778 180.019C151.925 180.456 150.628 185.072 150.022 186.441C148.629 189.591 148.75 189.857 149.247 192.753C149.368 193.504 150.18 197.151 150.701 197.745C151.84 199.029 154.638 197.999 155.305 199.78C153.015 200.544 155.487 204.142 156.008 205.014C157.134 206.904 156.165 206.602 158.092 207.159C159.412 207.547 159.061 205.838 161.011 206.977C161.993 207.547 161.884 209.037 162.453 209.812C163.689 211.508 163.798 212.223 165.846 211.399C166.742 211.036 166.633 207.147 168.027 210.539C168.935 212.756 166.972 214.961 166.161 216.864C165.628 218.112 164.186 221.371 164.416 222.873C164.816 225.502 166.1 224.388 167.905 226.048C168.741 226.811 168.644 227.889 169.359 228.737C169.88 229.343 170.753 229.561 171.189 230.082C173.152 232.408 172.122 232.82 172.279 235.91C172.376 237.86 175.781 244.863 176.992 245.457C177.416 245.663 178.119 244.221 178.943 244.682C179.234 244.839 179.743 245.966 179.743 245.966C181.075 246.414 182.953 246.705 184.577 247.238C186.758 247.941 185.655 248.341 188.127 247.905C190.974 247.396 190.598 246.281 193.373 248.801C194.039 247.868 195.408 245.736 196.608 245.336L196.668 245.324Z" fill="#FFB5A7" stroke="#FFB5A7" stroke-width="0.630025" stroke-linecap="round" stroke-linejoin="round"/>
<path d="M152.918 209.558C150.664 211.327 149.247 210.091 147.744 212.987C146.933 214.549 146.072 219.263 146.484 220.971C146.957 222.946 148.205 224.654 148.859 226.653C149.635 229.052 150.458 231.027 152.821 232.311C154.856 229.912 152.361 225.345 155.414 223.564C156.31 224.812 157.934 230.821 158.867 231.221C160.672 232.021 161.411 229.985 162.55 228.519C165.349 224.909 164.489 220.692 166.597 216.064C167.069 215.022 170.074 209.352 166.972 209.061C165.712 208.94 166.5 212.235 164.052 211.787C162.526 211.508 162.647 209.134 161.969 208.249C160.914 206.88 160.587 207.122 159.121 206.686C158.273 206.432 157.837 207.934 156.783 207.159C156.25 206.759 155.777 204.324 155.535 203.96C154.469 205.523 154.396 208.37 152.918 209.534V209.558Z" fill="#5CADFF" stroke="#5CADFF" stroke-width="0.630025" stroke-linecap="round" stroke-linejoin="round"/>
<path d="M140.596 182.03C136.21 181.97 139.021 188.827 139.373 190.875C140.051 194.776 138.44 198.023 138.609 201.755C138.791 205.559 141.759 206.674 142.765 210.2C143.892 214.162 141.517 217.857 146.581 219.505C146.86 217.639 146.848 214.695 147.732 212.986C149.235 210.079 150.858 211.436 152.906 209.558C153.73 208.794 155.414 205.075 155.523 203.984C155.62 203.027 152.833 200.58 155.317 199.756C154.699 198.084 152.748 199.186 151.84 198.363C150.119 196.812 150.883 196.436 150.119 194.413C148.702 190.621 148.29 190.257 150.18 186.138C146.957 185.592 143.54 182.067 140.584 182.03H140.596Z" fill="#8FC7FF" stroke="#8FC7FF" stroke-width="0.630025" stroke-linecap="round" stroke-linejoin="round"/>
<path d="M223.735 375.593C226.558 374.915 221.857 371.341 220.451 372.383C217.786 374.358 222.245 375.945 223.735 375.593Z" fill="#BEF8F5" stroke="#A7F6F2" stroke-width="0.630025" stroke-linecap="round" stroke-linejoin="round"/>
<path d="M218.186 366.81C220.136 367.888 217.822 369.051 216.526 368.578C214.878 367.973 216.792 366.046 218.186 366.81Z" fill="#BEF8F5" stroke="#A7F6F2" stroke-width="0.630025" stroke-linecap="round" stroke-linejoin="round"/>
<path d="M217.011 353.24C219.543 352.452 218.428 357.407 216.138 355.76C214.963 354.912 215.993 353.555 217.011 353.24Z" fill="#BEF8F5" stroke="#A7F6F2" stroke-width="0.630025" stroke-linecap="round" stroke-linejoin="round"/>
<path d="M219.107 356.656C218.913 359.394 223.263 360.327 222.948 357.577C222.911 357.31 219.252 354.633 219.107 356.656Z" fill="#BEF8F5" stroke="#A7F6F2" stroke-width="0.630025" stroke-linecap="round" stroke-linejoin="round"/>
<path d="M204.749 349.908C205.803 346.527 200.581 349.859 200.194 352.198C199.927 353.845 200.557 355.881 202.387 356.353C202.799 356.462 206.761 356.196 206.833 356.184C208.299 355.893 208.602 357.08 209.317 355.154C209.753 353.954 207.839 354.439 207.621 353.882C207.354 353.227 208.263 351.628 207.439 351.083C205.452 349.799 205.828 352.416 204.543 352.815C203.126 353.252 204.81 349.702 204.749 349.896V349.908Z" fill="#BEF8F5" stroke="#A7F6F2" stroke-width="0.630025" stroke-linecap="round" stroke-linejoin="round"/>
<path d="M196.147 351.325C199.588 348.975 195.832 343.632 192.27 347.751C191.543 348.587 191.555 349.932 190.925 350.78C190.344 351.555 189.144 351.858 188.623 352.779C187.121 355.372 188.805 356.765 189.944 358.886C190.332 359.612 191.156 360.024 191.398 360.872C191.58 361.515 190.659 362.569 190.841 363.284C191.41 365.44 193.433 367.015 195.42 365.149C196.39 364.241 195.202 362.593 196.62 362.072C199.503 361.018 197.916 364.35 198.643 365.537C200.097 367.888 200.909 366.349 203.017 366.737C204.362 366.979 205.113 369.451 206.591 367.56C207.1 366.894 206.361 365.283 206.579 364.483C207.052 362.678 208.796 361.612 207.924 359.273C205.961 354.027 201.418 359.964 198.51 358.619C198.946 358.825 196.511 355.542 196.583 355.687C195.965 354.475 194.039 352.779 196.159 351.325H196.147Z" fill="#BEF8F5" stroke="#A7F6F2" stroke-width="0.630025" stroke-linecap="round" stroke-linejoin="round"/>
<path d="M230.047 355.735C233.185 356.765 228.46 358.146 228.812 357.516C228.933 357.298 227.721 354.984 230.047 355.735Z" fill="#BEF8F5" stroke="#A7F6F2" stroke-width="0.630025" stroke-linecap="round" stroke-linejoin="round"/>
<path d="M232.228 355.239C233.44 357.153 232.301 356.087 232.362 357.323C232.434 358.595 230.047 359.491 232.979 361.539C235.039 362.969 234.203 362.448 235.403 360.509C235.754 359.94 236.432 358.401 236.59 357.662C236.723 357.02 235.936 355.772 235.996 355.542C236.226 354.669 240.491 349.968 237.62 350.053C237.244 350.053 232.374 355.457 232.24 355.239H232.228Z" fill="#BEF8F5" stroke="#A7F6F2" stroke-width="0.630025" stroke-linecap="round" stroke-linejoin="round"/>
<path d="M240.71 358.655C240.261 357.613 238.311 360.642 238.517 360.133C238.177 360.969 237.887 360.945 237.862 362.108C237.874 361.345 239.995 365.258 239.219 364.713C240.576 365.646 239.522 365.804 240.782 365.21C239.692 365.731 241.691 361.406 241.679 362.557C241.679 361.369 241.364 360.17 240.71 358.655Z" fill="#BEF8F5" stroke="#A7F6F2" stroke-width="0.630025" stroke-linecap="round" stroke-linejoin="round"/>
<path d="M241.558 344.419C242.103 340.966 243.314 344.104 243.472 344.771C244.477 348.975 241.376 345.619 241.558 344.419Z" fill="#BEF8F5" stroke="#A7F6F2" stroke-width="0.630025" stroke-linecap="round" stroke-linejoin="round"/>
<path d="M265.619 341.075C265.753 339.779 262.675 332.703 267.231 335.211C268.346 335.829 267.643 338.458 267.328 339.294C267.606 338.543 265.353 343.547 265.619 341.075Z" fill="#BEF8F5" stroke="#A7F6F2" stroke-width="0.630025" stroke-linecap="round" stroke-linejoin="round"/>
<path d="M256.472 340.712C258.035 339.185 257.175 336.907 255.03 337.901C253.916 338.422 253.601 342.178 252.256 343.365C251.262 344.237 249.093 344.177 248.439 345.11C246.985 347.206 252.098 347.533 250.038 349.702C247.325 346.673 248.209 349.871 246.186 349.895C244.659 349.92 245.265 348.284 243.278 348.551C242.418 348.66 241.254 349.908 240.721 350.526C238.165 353.494 239.376 354.451 241.303 356.293C243.278 358.183 242.26 357.65 244.065 356.814C244.938 356.414 246.331 353.821 247.724 355.033C250.402 357.371 246.476 358.219 245.834 359.055C242.817 362.968 246.791 360.533 247.397 361.236C248.354 362.375 247.325 363.126 247.325 364.604C247.325 364.568 248.681 365.707 248.718 365.864C248.948 366.676 246.585 366.482 247.736 367.863C249.457 369.947 251.008 367.488 251.832 365.828C252.692 364.071 252.825 362.435 253.722 360.691C254.025 360.109 253.891 359.091 254.437 358.667C255.079 358.159 256.617 359.358 257.199 358.825C258.726 357.407 256.823 356.85 257.247 355.263C257.49 354.366 259.537 355.081 259.477 353.373C259.44 352.488 258.314 352.282 258.229 352.052C258.144 351.834 256.908 352.949 256.436 352.173C255.66 350.913 257.465 350.029 257.708 348.854C258.108 346.915 255.163 342.02 256.496 340.736L256.472 340.712Z" fill="#BEF8F5" stroke="#A7F6F2" stroke-width="0.630025" stroke-linecap="round" stroke-linejoin="round"/>
<path d="M264.711 328.85C264.565 326.948 267.703 328.305 268.43 327.833C270.139 326.73 269.048 324.84 270.175 323.58C271.883 321.666 273.131 322.998 275.361 322.599C278.159 322.102 277.796 320.587 279.529 319.037C282.133 316.674 286.398 316.419 287.973 313.088C288.797 311.343 287.622 309.95 289.294 308.484C290.578 307.369 293.219 308.811 294.819 306.921C298.72 302.305 292.214 300.742 289.694 298.718C287.743 297.155 286.883 296.028 284.46 294.999C283.212 294.466 280.086 293.811 279.65 292.212C279.117 290.249 282.109 289.244 281.673 286.845C281.104 283.779 279.02 284.64 276.778 284.203C274.706 283.804 272.622 282.519 270.526 283.392C269.775 284.094 269.169 284.906 268.709 285.827C268.067 286.724 267.207 287.075 266.128 286.869C265.474 287.257 262.094 289.268 261.294 289.413C259.404 289.74 257.029 287.826 255.188 287.45C253.588 287.123 248.778 288.383 247.821 287.875C246.38 287.099 246.186 283.779 244.695 282.689C241.121 280.084 237.632 282.398 234.288 283.525C231.21 284.555 232.555 284.397 229.466 283.283C227.152 282.447 225.674 282.313 223.178 282.313C221.578 282.313 218.198 282.786 217.144 281.041C216.502 279.975 217.035 275.213 216.332 273.408C215.472 271.191 213.788 270.113 212.867 268.768C211.995 268.877 211.522 268.465 211.45 267.544C211.692 266.635 211.607 265.763 211.207 264.927C209.85 263.921 207.354 265.63 205.828 265.533C202.871 265.351 203.271 263.934 201.43 262.577C201.236 261.801 200.763 261.256 200.024 260.941C199.152 260.965 198.352 261.208 197.613 261.68C195.929 261.28 195.154 259.947 193.385 259.487C193.627 261.801 191.737 260.844 190.622 261.498C189.205 262.322 188.175 263.207 186.794 264.2C184.468 265.872 182.771 267.156 180.554 269.059C179.415 270.028 178.567 269.18 177.816 270.852C177.368 271.845 177.816 273.784 177.44 275.02C176.277 278.86 173.745 282.459 172.945 286.505C172.012 291.279 175.647 292.236 175.95 296.755C176.023 297.785 175.235 298.973 175.599 299.99C175.986 301.069 177.804 300.681 177.937 302.195C178.119 304.34 175.502 304.001 175.041 305.2C174.411 306.836 175.344 308.047 175.102 309.635C174.69 312.385 173.491 312.07 171.964 313.633C170.134 313.56 169.686 314.214 170.619 315.584C170.825 316.347 170.983 317.122 171.092 317.898C172.061 322.078 172.352 324.028 175.865 326.621C178.991 328.923 179.246 330.68 181.729 333.406C184.819 336.81 186.176 335.878 185.473 341.063C184.988 344.625 184.31 345.946 188.441 346.212C189.774 346.297 194.342 345.534 195.335 344.662C196.559 343.583 196.353 338.919 198.28 339.609C199.564 340.07 198.679 344.613 202.496 342.662C206.991 340.348 201.515 338.313 201.696 337.307C201.866 336.338 203.962 337.089 203.913 338.107C205.355 337.659 205.04 334.884 206.07 334.751C207.766 334.533 206.409 339.573 206.288 340.336C206.106 341.524 205.137 343.717 205.392 344.892C205.925 347.412 206.627 346.309 208.59 347.279C210.868 348.405 214.285 352.84 217.859 349.459C219.216 348.175 217.12 346.988 219.979 346.588C222.681 346.212 221.809 348.345 223.602 348.696C226.497 349.266 226.279 341.911 228.509 345.643C230.508 348.975 223.505 351.107 228.351 352.816C232.749 354.366 235.039 350.598 235.645 347.327C235.754 346.709 236.711 343.959 236.481 343.426C236.19 342.747 234.458 342.65 234.276 342.081C235.003 340.154 241.351 343.559 240.285 338.652C239.171 333.551 234.93 338.579 233.028 338.834C229.333 339.331 232.471 335.381 235.378 335.296C239.292 335.199 242.321 335.502 236.541 332.146C237.886 330.268 239.183 332.206 240.576 332.231C240.94 332.231 243.169 331.334 243.084 331.322C244.15 331.504 244.95 331.286 245.713 332.57C246.38 333.685 245.156 333.503 245.289 333.987C245.846 335.974 244.138 336.084 247.3 335.926C250.135 335.793 251.747 334.181 250.208 331.055C249.808 330.232 244.574 325.858 248.294 325.531C250.778 325.313 249.203 327.554 250.778 328.196C252.159 328.766 253.758 327.348 254.982 328.099C256.278 328.887 255.672 330.801 256.836 331.698C258.132 332.703 258.895 332.364 260.398 332.497C261.04 332.558 262.433 332.255 263.051 332.279C264.335 332.34 265.523 333.055 267.146 332.97C266.613 332.146 264.759 330.038 264.675 328.899L264.711 328.85Z" fill="#A7F6F2" stroke="#A7F6F2" stroke-width="0.630025" stroke-linecap="round" stroke-linejoin="round"/>
<path d="M322.189 242.246C321.062 239.593 315.489 250.013 312.884 249.589C312.29 249.492 309.625 246.438 309.394 246.027C308.195 243.821 308.837 245.36 310.727 242.465C312.496 239.775 311.236 239.726 310.182 237.146C309.382 235.195 309.091 233.511 308.667 231.342C307.662 226.193 307.056 219.42 309.855 214.598C312.423 210.176 314.01 205.899 313.041 200.362C312.217 195.612 309.479 192.777 312.472 187.967C313.744 185.92 315.198 185.484 315.561 182.818C315.901 180.407 315.367 177.318 314.544 175.052C312.266 168.861 310.715 164.172 310.909 157.229C310.982 154.685 311.466 152.213 310.497 149.984C309.964 148.76 308.401 147.791 307.698 146.495C307.335 145.816 307.601 144.302 306.947 143.817C302.282 140.316 300.429 150.311 297.363 152.044C293.304 154.346 292.057 147.961 288.494 147.682C286.144 147.5 284.133 149.851 281.697 149.96C278.475 150.117 276.536 149.209 273.277 150.13C270.745 150.844 271.132 151.571 269.206 149.718C267.534 148.106 268.927 145.15 265.244 144.544C258.423 143.429 264.82 153.328 259.247 154.261C256.654 154.697 256.218 151.571 254.267 150.99C253.625 150.796 249.784 151.862 248.694 152.589C246.44 154.079 247.458 155.194 246.125 157.169C244.574 159.459 242.309 159.859 240.067 161.191C237.923 162.476 236.457 163.384 236.154 166.001C235.803 169.067 238.044 170.92 235.439 173.477C234.203 174.688 229.575 176.239 227.915 175.27C226.013 174.167 226.437 170.799 223.372 170.302C220.67 169.866 219.495 172.362 217.265 173.174C215.012 173.998 212.722 173.344 210.384 173.961C208.166 174.555 206.797 175.173 206.3 177.427C205.998 178.796 208.796 183.303 208.518 183.715C208.542 183.678 200.436 183.279 200.17 182.237C200.037 186.477 196.523 184.199 194.972 185.726C193.409 187.253 194.403 189.385 192.694 190.924C191.64 191.881 188.696 191.154 188.151 192.862C187.618 194.546 191.386 196.473 192.561 197.515C194.366 199.102 195.542 199.429 195.542 202.107C195.542 205.378 194.173 208.879 193.93 212.211C193.809 213.81 194.003 215.543 193.567 217.106C193.215 218.342 191.398 220.111 191.446 221.31C191.604 225.636 193.724 222.061 195.808 222.328C198.316 222.643 198.886 225.43 201.224 225.914C202.436 226.169 203.005 224.666 204.423 225.151C205.743 225.599 206.3 227.465 206.579 228.713C206.906 230.252 209.039 229.282 206.531 231.124C205.368 231.972 204.326 230.615 203.477 231.233C202.436 231.984 202.617 236.007 202.108 237.57C201.224 240.332 200.376 243.264 198.183 245.094C197.214 245.893 193.397 246.451 193.458 248.704C193.482 249.649 195.735 251.152 195.869 252.593C195.99 253.89 195.578 254.35 195.045 255.525C193.894 258.118 192.076 257.827 195.118 260.287C197.456 262.189 198.062 260.008 200.073 260.832C202.157 261.692 201.781 264.382 204.313 265.242C206.24 265.909 209.305 263.801 210.735 264.649C212.152 265.497 210.759 266.478 211.498 267.411C212.637 268.865 212.831 267.738 213.873 268.768C215.69 270.573 217.241 274.584 217.483 277.079C217.823 280.472 216.647 281.49 220.743 282.192C223.154 282.604 225.734 281.574 228.121 282.447C232.277 283.961 230.762 285.003 234.906 282.931C239.28 280.751 243.629 280.678 246.416 285.003C246.561 285.221 247.422 287.523 247.858 287.754C248.379 288.032 252.462 287.015 253.371 287.075C255.842 287.257 259.004 289.789 261.319 289.304C262.591 289.038 262.978 287.693 264.081 287.22C265.147 286.76 266.662 287.172 267.631 286.651C270.09 285.342 269.533 283.295 272.768 283.053C275.01 282.883 277.942 284.846 280.207 284.434C284.884 283.561 283.515 280.848 285.247 277.758C286.713 275.153 290.251 274.996 292.893 275.189C294.08 275.286 295.401 275.298 296.491 275.844C298.405 276.801 298.03 278.073 299.217 279.26C301.822 281.877 302.258 280.811 305.699 280.06C307.698 279.624 309.176 280.072 311.115 280.181C313.865 280.339 312.763 281.041 314.325 279.188C316.228 276.922 316.628 271.518 317.427 268.623C318.433 265.024 318.736 261.935 319.269 258.348C320.081 252.933 324.527 247.589 322.213 242.125L322.189 242.246Z" fill="#9496FF" stroke="#9496FF" stroke-width="1.26005"/>
<path d="M299.289 306C296.03 303.334 294.976 307.078 292.311 308.35C290.796 309.065 289.718 307.781 288.482 309.211C287.695 310.131 288.434 312.046 287.985 313.088C286.846 315.717 284.496 315.826 282.255 317.086C279.916 318.394 279.165 321.096 276.948 322.211C273.349 324.016 272.247 321.23 269.86 324.78C269 326.04 269.957 326.863 268.455 327.833C267.57 328.402 266.031 327.142 265.22 328.014C263.826 329.505 267.182 333.66 268.903 333.442C269.315 333.394 270.538 331.879 270.163 331.807C270.417 331.855 271.568 332.861 271.471 332.837C271.532 332.849 271.714 334.278 272.392 334.472C273.18 334.69 273.555 332.534 274.9 332.837C275.833 333.055 275.591 336.108 276.524 336.762C278.523 338.155 279.104 336.605 280.364 335.538C281.54 334.533 280.255 333.951 282.291 333.66C282.872 333.576 283.515 336.277 284.593 335.429C286.75 333.709 281.431 332.122 283.309 330.607C284.423 329.711 284.872 331.637 285.877 331.734C288.482 331.988 287.646 331.492 289.148 330.28C289.306 330.159 290.445 328.608 291.051 328.051C292.141 327.057 293.341 326.754 294.382 325.918C297.121 323.725 297.969 321.738 298.526 317.97C298.829 315.923 297.69 311.634 300.683 312.021C300.416 310.107 301.058 307.417 299.302 305.988L299.289 306Z" fill="#5CADFF" stroke="#5CADFF" stroke-width="0.630025" stroke-linecap="round" stroke-linejoin="round"/>
<path d="M314.374 285.112C313.017 283.852 312.859 282.75 313.61 280.993C311.393 280.266 309.14 279.769 306.813 280.036C305.19 280.23 303.385 281.671 301.773 281.356C298.599 280.738 299.156 277.031 295.812 275.71C293.268 274.705 288.446 274.79 286.362 276.607C284.484 278.243 285.635 279.587 284.799 281.211C283.648 283.452 281.927 282.762 280.207 284.555C284.229 287.111 278.947 290.116 279.965 292.576C280.837 294.708 286.701 295.726 288.555 297.277C291.099 299.397 293.728 300.936 295.788 303.335C295.267 305.019 295.897 305.673 297.666 305.322C298.211 305.552 298.756 305.782 299.302 306.024C301.034 307.539 300.404 310.071 300.683 312.058C302.73 312.325 303.239 310.241 304.39 309.102C306.668 306.86 306.716 308.605 306.414 304.062C306.341 302.971 308.231 294.32 308.922 294.417C310.896 294.696 308.195 298.367 310.836 298.185C312.774 298.052 312.302 295.483 312.532 294.284C312.823 292.782 315.307 285.973 314.398 285.124L314.374 285.112Z" fill="#FFB5A7" stroke="#FFB5A7" stroke-width="0.630025" stroke-linecap="round" stroke-linejoin="round"/>
<path d="M114.523 100.636C109.046 100.042 112.802 105.785 114.062 107.748C116.061 110.862 117.527 115.248 122.119 115.381C124.93 115.466 124.058 113.806 125.9 113.103C128.02 112.28 127.45 113.273 129.171 113.77C131.715 114.509 131.388 115.623 134.465 114.569C136.186 113.988 138.791 112.243 139.639 110.632C140.608 108.79 140.802 106.864 139.445 105.095C138.197 103.483 135.859 103.932 134.817 102.587C132.999 100.261 135.604 94.869 133.52 92.3489C131.279 89.635 127.463 92.5307 125.863 94.2753C122.459 97.9949 120.387 101.266 114.523 100.624V100.636Z" fill="#BEF8F5" stroke="#BEF8F5" stroke-width="0.630025" stroke-linecap="round" stroke-linejoin="round"/>
<path d="M246.695 251.006C246.065 251.345 243.799 252.278 243.217 253.199C242.527 254.302 243.181 255.755 242.648 256.676C240.407 260.65 238.565 254.883 235.669 255.537C233.295 256.083 232.168 260.541 233.67 262.31C234.991 263.873 238.31 262.383 238.323 265.085C238.323 267.12 234.712 267.241 233.767 268.501C231.816 271.106 234.773 272.5 234.324 275.092C233.828 277.964 231.102 275.698 230.811 279.43C230.52 283.186 233.658 284.191 236.699 283.876C239.583 283.573 241.4 282.592 242.575 279.902C243.508 277.758 243.387 272.766 247.094 273.227C249.287 273.505 249.639 276.667 252.45 275.638C253.625 275.201 253.661 273.905 254.34 273.323C254.752 272.972 256.872 272.33 257.235 271.761C258.302 270.064 258.108 266.005 258.92 263.752C260.155 260.323 261.864 257.803 259.562 254.701C258.568 253.369 256.787 250.303 255.515 249.395C252.85 247.468 249.142 249.661 246.683 250.994L246.695 251.006Z" fill="#FFB5A7" stroke="#FFB5A7" stroke-width="0.630025" stroke-linecap="round" stroke-linejoin="round"/>
<path d="M116.812 318.722C115.128 319.255 113.892 320.89 112.063 321.084C110.488 321.254 109.204 319.848 107.701 319.909C104.297 320.054 101.498 323.071 100.517 326.282C98.7355 332.158 103.388 329.468 106.574 331.043C109.809 332.643 108.065 336.35 112.184 336.205C113.723 336.156 115.165 334.436 116.679 334.024C118.46 333.539 120.168 333.963 121.962 333.782C125.827 333.37 126.323 333.079 126.965 329.492C127.705 325.337 126.905 326.161 124.554 323.907C122.228 321.678 121.089 317.377 116.812 318.722Z" fill="#BEF8F5" stroke="#BEF8F5" stroke-width="0.630025" stroke-linecap="round" stroke-linejoin="round"/>
</g>
<defs>
<filter id="filter0_d_147_2524" x="0" y="0" width="359" height="505.384" filterUnits="userSpaceOnUse" color-interpolation-filters="sRGB">
<feFlood flood-opacity="0" result="BackgroundImageFix"/>
<feColorMatrix in="SourceAlpha" type="matrix" values="0 0 0 0 0 0 0 0 0 0 0 0 0 0 0 0 0 0 127 0" result="hardAlpha"/>
<feOffset dy="4"/>
<feGaussianBlur stdDeviation="4"/>
<feComposite in2="hardAlpha" operator="out"/>
<feColorMatrix type="matrix" values="0 0 0 0 0 0 0 0 0 0 0 0 0 0 0 0 0 0 0.14 0"/>
<feBlend mode="normal" in2="BackgroundImageFix" result="effect1_dropShadow_147_2524"/>
<feBlend mode="normal" in="SourceGraphic" in2="effect1_dropShadow_147_2524" result="shape"/>
</filter>
<clipPath id="clip0_147_2524">
<rect width="343" height="489.384" fill="white" transform="translate(8 4)"/>
</clipPath>
</defs>
</svg>
