<svg width="45" height="44" viewBox="0 0 45 44" fill="none" xmlns="http://www.w3.org/2000/svg">
<path d="M42.75 3.1V40.9C42.75 41.258 42.6078 41.6014 42.3546 41.8546C42.1014 42.1078 41.758 42.25 41.4 42.25H3.6C3.24196 42.25 2.89858 42.1078 2.64541 41.8546C2.39223 41.6014 2.25 41.258 2.25 40.9V3.1C2.25 2.74196 2.39223 2.39858 2.64541 2.14541C2.89858 1.89223 3.24196 1.75 3.6 1.75H41.4C41.758 1.75 42.1014 1.89223 42.3546 2.14541C42.6078 2.39858 42.75 2.74196 42.75 3.1Z" stroke="#9090A2" stroke-width="3" stroke-linecap="round" stroke-linejoin="round"/>
<path d="M2.25 31L18 24.25L42.75 35.5M31.5 17.5C30.3065 17.5 29.1619 17.0259 28.318 16.182C27.4741 15.3381 27 14.1935 27 13C27 11.8065 27.4741 10.6619 28.318 9.81802C29.1619 8.97411 30.3065 8.5 31.5 8.5C32.6935 8.5 33.8381 8.97411 34.682 9.81802C35.5259 10.6619 36 11.8065 36 13C36 14.1935 35.5259 15.3381 34.682 16.182C33.8381 17.0259 32.6935 17.5 31.5 17.5Z" stroke="#9090A2" stroke-width="3" stroke-linecap="round" stroke-linejoin="round"/>
</svg>
